<?xml version="1.0" encoding="utf-8" ?>
<svg baseProfile="full" height="1080" version="1.1" width="1920" xmlns="http://www.w3.org/2000/svg" xmlns:ev="http://www.w3.org/2001/xml-events" xmlns:xlink="http://www.w3.org/1999/xlink"><defs /><rect fill="rgb(0,0,0)" height="1080" width="1920" x="0" y="0" /><path d="M 694 254 L 696 252 L 698 251 L 700 249 L 702 248 L 704 247 L 706 245 L 708 244 L 710 243 L 713 241 L 715 240 L 717 239 L 719 238 L 721 237 L 724 236 L 726 235 L 728 234 L 730 233 L 733 232 L 735 231 L 737 230 L 739 229 L 742 228 L 744 227 L 746 226 L 749 225 L 751 225 L 753 224 L 756 223 L 758 222 L 761 221 L 763 221 L 765 220 L 768 219 L 770 219 L 773 218 L 775 218 L 778 217 L 780 216 L 782 216 L 785 215 L 787 215 L 790 214 L 792 214 L 795 213 L 798 213 L 800 212 L 803 212 L 805 212 L 808 211 L 810 211 L 813 210 L 816 210 L 818 210 L 821 209 L 823 209 L 826 209 L 829 209 L 831 208 L 834 208 L 837 208 L 839 207 L 842 207 L 845 207 L 847 207 L 850 207 L 853 206 L 856 206 L 858 206 L 861 206 L 864 206 L 867 206 L 870 205 L 872 205 L 875 205 L 878 205 L 881 205 L 884 205 L 886 205 L 889 205 L 892 204 L 895 204 L 898 204 L 901 204 L 904 204 L 907 204 L 910 204 L 913 204 L 915 204 L 918 204 L 921 204 L 924 204 L 927 203 L 930 203 L 933 203 L 936 203 L 939 203 L 942 203 L 945 203 L 948 203 L 951 203 L 954 203 L 958 203 L 961 203 L 964 203 L 967 203 L 970 202 L 973 202 L 976 202 L 979 202 L 982 202 L 986 202 L 989 202 L 992 202 L 995 202 L 998 201 L 1001 201 L 1005 201 L 1008 201 L 1011 201 L 1014 201 L 1017 200 L 1021 200 L 1024 200 L 1027 200 L 1030 200 L 1034 199 L 1037 199 L 1040 199 L 1044 199 L 1047 198 L 1050 198 L 1053 198 L 1057 198 L 1060 197 L 1063 197 L 1067 197 L 1070 196 L 1073 196 L 1077 196 L 1080 195 L 1084 195 L 1087 195 L 1090 194 L 1094 194 L 1097 193 L 1100 193 L 1104 193 L 1107 192 L 1111 192 L 1114 191 L 1118 191 L 1121 191 L 1124 190 L 1128 190 L 1131 189 L 1135 189 L 1138 188 L 1142 188 L 1145 187 L 1148 187 L 1152 187 L 1155 186 L 1159 186 L 1162 185 L 1166 185 L 1169 184 L 1172 184 L 1176 183 L 1179 183 L 1183 182 L 1186 182 L 1190 181 L 1193 181 L 1197 180 L 1200 180 L 1203 179 L 1207 179 L 1210 178 L 1214 178 L 1217 177 L 1220 177 L 1224 176 L 1227 176 L 1231 175 L 1234 175 L 1238 174 L 1241 174 L 1244 173 L 1248 173 L 1251 172 L 1254 172 L 1258 171 L 1261 171 L 1265 170 L 1268 170 L 1271 169 L 1275 169 L 1278 168 L 1281 168 L 1285 167 L 1288 167 L 1291 167 L 1295 166 L 1298 166 L 1301 165 L 1304 165 L 1308 164 L 1311 164 L 1314 163 L 1317 163 L 1321 163 L 1324 162 L 1327 162 L 1330 161 L 1334 161 L 1337 161 L 1340 160 L 1343 160 L 1346 159 L 1349 159 L 1353 159 L 1356 158 L 1359 158 L 1362 158 L 1365 157 L 1368 157 L 1371 157 L 1374 157 L 1377 156 L 1380 156 L 1383 156 L 1386 155 L 1389 155 L 1392 155 L 1395 155 L 1398 155 L 1401 154 L 1404 154 L 1407 154 L 1410 154 L 1413 154 L 1416 153 L 1418 153 L 1421 153 L 1424 153 L 1427 153 L 1430 153 L 1432 153 L 1435 153 L 1438 153 L 1441 153 L 1443 153 L 1446 153 L 1449 153 L 1451 153 L 1454 153 L 1456 153 L 1459 153 L 1462 153 L 1464 153 L 1467 153 L 1469 153 L 1472 153 L 1474 153 L 1477 153 L 1479 154 L 1481 154 L 1484 154 L 1486 154 L 1488 154 L 1491 155 L 1493 155 L 1495 155 L 1498 156 L 1500 156 L 1502 156 L 1504 157 L 1506 157 L 1509 157 L 1511 158 L 1513 158 L 1515 159 L 1517 159 L 1519 160 L 1521 160 L 1523 161 L 1525 161 L 1527 162 L 1529 162 L 1531 163 L 1532 164 L 1534 164 L 1536 165 L 1538 166 L 1540 166 L 1541 167 L 1543 168 L 1545 169 L 1546 169 L 1548 170 L 1549 171 L 1551 172 L 1553 173 L 1554 174 L 1556 175 L 1557 176 L 1558 177 L 1560 178 L 1561 179 L 1563 180 L 1564 181 L 1565 182 L 1566 183 L 1568 184 L 1569 185 L 1570 186 L 1571 188 L 1572 189 L 1573 190 L 1574 191 L 1575 193 L 1576 194 L 1577 195 L 1578 197 L 1579 198 L 1580 200 L 1580 201 L 1581 203 L 1582 204 L 1583 206 L 1583 207 L 1584 209 L 1585 211 L 1585 212 L 1586 214 L 1586 216 L 1587 217 L 1587 219 L 1588 221 L 1588 223 L 1588 225 L 1589 226 L 1589 228 L 1589 230 L 1589 232 L 1590 234 L 1590 236 L 1590 238 L 1590 240 L 1590 242 L 1590 244 L 1590 246 L 1590 248 L 1590 250 L 1590 253 L 1590 255 L 1590 257 L 1590 259 L 1590 261 L 1590 263 L 1589 266 L 1589 268 L 1589 270 L 1589 273 L 1588 275 L 1588 277 L 1588 280 L 1587 282 L 1587 284 L 1586 287 L 1586 289 L 1586 292 L 1585 294 L 1585 297 L 1584 299 L 1583 302 L 1583 304 L 1582 307 L 1582 309 L 1581 312 L 1580 314 L 1579 317 L 1579 319 L 1578 322 L 1577 325 L 1576 327 L 1576 330 L 1575 333 L 1574 335 L 1573 338 L 1572 341 L 1571 343 L 1570 346 L 1569 349 L 1568 351 L 1567 354 L 1566 357 L 1565 360 L 1564 362 L 1563 365 L 1562 368 L 1561 371 L 1560 374 L 1559 376 L 1558 379 L 1556 382 L 1555 385 L 1554 388 L 1553 391 L 1552 393 L 1550 396 L 1549 399 L 1548 402 L 1546 405 L 1545 408 L 1544 411 L 1542 414 L 1541 417 L 1540 419 L 1538 422 L 1537 425 L 1535 428 L 1534 431 L 1532 434 L 1531 437 L 1529 440 L 1528 443 L 1526 446 L 1525 449 L 1523 452 L 1522 455 L 1520 458 L 1519 460 L 1517 463 L 1515 466 L 1514 469 L 1512 472 L 1511 475 L 1509 478 L 1507 481 L 1506 484 L 1504 487 L 1502 490 L 1501 493 L 1499 496 L 1497 499 L 1495 502 L 1494 504 L 1492 507 L 1490 510 L 1488 513 L 1487 516 L 1485 519 L 1483 522 L 1481 525 L 1479 528 L 1478 531 L 1476 534 L 1474 536 L 1472 539 L 1470 542 L 1469 545 L 1467 548 L 1465 551 L 1463 554 L 1461 556 L 1459 559 L 1457 562 L 1455 565 L 1454 568 L 1452 570 L 1450 573 L 1448 576 L 1446 579 L 1444 581 L 1442 584 L 1440 587 L 1438 590 L 1436 592 L 1434 595 L 1432 598 L 1430 600 L 1429 603 L 1427 606 L 1425 608 L 1423 611 L 1421 614 L 1419 616 L 1417 619 L 1415 622 L 1413 624 L 1411 627 L 1409 629 L 1407 632 L 1405 634 L 1403 637 L 1401 639 L 1399 642 L 1397 644 L 1395 647 L 1393 649 L 1391 652 L 1389 654 L 1387 657 L 1385 659 L 1383 662 L 1381 664 L 1379 666 L 1377 669 L 1375 671 L 1373 673 L 1371 676 L 1369 678 L 1367 680 L 1365 683 L 1363 685 L 1361 687 L 1359 690 L 1357 692 L 1354 694 L 1352 696 L 1350 699 L 1348 701 L 1346 703 L 1344 705 L 1342 707 L 1340 710 L 1338 712 L 1336 714 L 1334 716 L 1332 718 L 1329 720 L 1327 722 L 1325 724 L 1323 726 L 1321 729 L 1319 731 L 1317 733 L 1315 735 L 1312 737 L 1310 739 L 1308 741 L 1306 743 L 1304 745 L 1302 746 L 1299 748 L 1297 750 L 1295 752 L 1293 754 L 1291 756 L 1289 758 L 1286 760 L 1284 762 L 1282 763 L 1280 765 L 1278 767 L 1275 769 L 1273 771 L 1271 772 L 1269 774 L 1267 776 L 1264 778 L 1262 779 L 1260 781 L 1258 783 L 1255 784 L 1253 786 L 1251 788 L 1249 789 L 1246 791 L 1244 792 L 1242 794 L 1240 796 L 1237 797 L 1235 799 L 1233 800 L 1230 802 L 1228 803 L 1226 805 L 1224 806 L 1221 808 L 1219 809 L 1217 811 L 1214 812 L 1212 813 L 1210 815 L 1207 816 L 1205 818 L 1203 819 L 1200 820 L 1198 822 L 1196 823 L 1193 824 L 1191 825 L 1188 827 L 1186 828 L 1184 829 L 1181 830 L 1179 832 L 1176 833 L 1174 834 L 1172 835 L 1169 836 L 1167 838 L 1164 839 L 1162 840 L 1160 841 L 1157 842 L 1155 843 L 1152 844 L 1150 845 L 1147 846 L 1145 847 L 1142 848 L 1140 849 L 1137 850 L 1135 851 L 1132 852 L 1130 853 L 1127 854 L 1125 855 L 1122 856 L 1120 856 L 1117 857 L 1115 858 L 1112 859 L 1110 860 L 1107 860 L 1105 861 L 1102 862 L 1100 863 L 1097 863 L 1095 864 L 1092 865 L 1089 866 L 1087 866 L 1084 867 L 1082 867 L 1079 868 L 1076 869 L 1074 869 L 1071 870 L 1069 870 L 1066 871 L 1063 871 L 1061 872 L 1058 872 L 1056 873 L 1053 873 L 1050 874 L 1048 874 L 1045 875 L 1042 875 L 1040 875 L 1037 876 L 1034 876 L 1031 876 L 1029 877 L 1026 877 L 1023 877 L 1021 878 L 1018 878 L 1015 878 L 1012 878 L 1010 879 L 1007 879 L 1004 879 L 1001 879 L 999 879 L 996 879 L 993 879 L 990 879 L 988 880 L 985 880 L 982 880 L 979 880 L 976 880 L 974 880 L 971 880 L 968 880 L 965 879 L 962 879 L 959 879 L 957 879 L 954 879 L 951 879 L 948 879 L 945 879 L 942 878 L 939 878 L 937 878 L 934 878 L 931 877 L 928 877 L 925 877 L 922 876 L 919 876 L 916 876 L 913 875 L 910 875 L 908 875 L 905 874 L 902 874 L 899 873 L 896 873 L 893 872 L 890 872 L 887 871 L 884 871 L 881 870 L 878 870 L 876 869 L 873 869 L 870 868 L 867 867 L 864 867 L 861 866 L 858 865 L 855 865 L 852 864 L 849 863 L 846 862 L 844 862 L 841 861 L 838 860 L 835 859 L 832 859 L 829 858 L 826 857 L 823 856 L 821 855 L 818 854 L 815 853 L 812 852 L 809 851 L 806 850 L 803 849 L 801 848 L 798 847 L 795 846 L 792 845 L 789 844 L 787 843 L 784 842 L 781 841 L 778 840 L 775 839 L 773 838 L 770 836 L 767 835 L 764 834 L 762 833 L 759 832 L 756 830 L 754 829 L 751 828 L 748 827 L 745 825 L 743 824 L 740 823 L 738 821 L 735 820 L 732 818 L 730 817 L 727 816 L 724 814 L 722 813 L 719 811 L 717 810 L 714 808 L 712 807 L 709 805 L 707 804 L 704 802 L 702 801 L 699 799 L 697 797 L 694 796 L 692 794 L 690 793 L 687 791 L 685 789 L 682 788 L 680 786 L 678 784 L 676 782 L 673 781 L 671 779 L 669 777 L 666 775 L 664 774 L 662 772 L 660 770 L 658 768 L 655 766 L 653 764 L 651 762 L 649 760 L 647 759 L 645 757 L 643 755 L 641 753 L 639 751 L 637 749 L 635 747 L 633 745 L 631 743 L 629 741 L 627 738 L 625 736 L 623 734 L 622 732 L 620 730 L 618 728 L 616 726 L 614 724 L 613 721 L 611 719 L 609 717 L 608 715 L 606 712 L 604 710 L 603 708 L 601 706 L 600 703 L 598 701 L 597 699 L 595 696 L 594 694 L 592 692 L 591 689 L 590 687 L 588 684 L 587 682 L 586 680 L 584 677 L 583 675 L 582 672 L 581 670 L 580 667 L 578 665 L 577 662 L 576 660 L 575 657 L 574 654 L 573 652 L 572 649 L 571 647 L 570 644 L 569 641 L 569 639 L 568 636 L 567 633 L 566 631 L 565 628 L 565 625 L 564 622 L 563 620 L 563 617 L 562 614 L 562 611 L 561 608 L 561 606 L 560 603 L 560 600 L 559 597 L 559 594 L 558 591 L 558 589 L 558 586 L 557 583 L 557 580 L 557 577 L 557 574 L 556 571 L 556 568 L 556 565 L 556 562 L 556 560 L 556 557 L 556 554 L 556 551 L 556 548 L 556 545 L 556 542 L 556 539 L 556 536 L 556 533 L 556 530 L 556 527 L 557 524 L 557 521 L 557 518 L 557 515 L 558 512 L 558 509 L 558 506 L 559 503 L 559 500 L 560 497 L 560 494 L 560 491 L 561 488 L 561 485 L 562 482 L 563 479 L 563 476 L 564 473 L 564 470 L 565 467 L 566 465 L 566 462 L 567 459 L 568 456 L 568 453 L 569 450 L 570 447 L 571 444 L 572 441 L 572 438 L 573 435 L 574 432 L 575 429 L 576 427 L 577 424 L 578 421 L 579 418 L 580 415 L 581 412 L 582 409 L 583 407 L 584 404 L 585 401 L 586 398 L 588 395 L 589 393 L 590 390 L 591 387 L 592 384 L 594 382 L 595 379 L 596 376 L 597 374 L 599 371 L 600 368 L 601 366 L 603 363 L 604 360 L 605 358 L 607 355 L 608 353 L 610 350 L 611 348 L 613 345 L 614 343 L 616 340 L 617 338 L 619 335 L 620 333 L 622 330 L 623 328 L 625 326 L 626 323 L 628 321 L 630 319 L 631 316 L 633 314 L 635 312 L 636 310 L 638 307 L 640 305 L 642 303 L 643 301 L 645 299 L 647 297 L 649 294 L 651 292 L 652 290 L 654 288 L 656 286 L 658 284 L 660 282 L 662 281 L 664 279 L 665 277 L 667 275 L 669 273 L 671 271 L 673 270 L 675 268 L 677 266 L 679 264 L 681 263 L 683 261 L 685 260 L 687 258 L 689 256 L 691 255 L 694 254 Z" fill="rgb(0,0,0)" stroke="rgb(255,255,255)" stroke-linecap="round" stroke-linejoin="round" stroke-width="2" /></svg>