<?xml version="1.0" encoding="utf-8" ?>
<svg baseProfile="full" height="1585" version="1.1" width="1920" xmlns="http://www.w3.org/2000/svg" xmlns:ev="http://www.w3.org/2001/xml-events" xmlns:xlink="http://www.w3.org/1999/xlink"><defs /><rect fill="rgb(0,0,0)" height="1585" width="1920" x="0" y="0" /><path d="M 397 1007 L 396 1005 L 395 1003 L 393 1001 L 392 998 L 391 996 L 390 994 L 388 991 L 387 989 L 386 986 L 385 984 L 384 981 L 383 979 L 381 976 L 380 973 L 379 971 L 378 968 L 377 965 L 377 963 L 376 960 L 375 957 L 374 955 L 373 952 L 372 949 L 371 946 L 371 943 L 370 941 L 369 938 L 369 935 L 368 932 L 367 929 L 367 926 L 366 923 L 366 920 L 365 917 L 365 914 L 364 911 L 364 908 L 363 905 L 363 902 L 363 899 L 362 896 L 362 892 L 362 889 L 361 886 L 361 883 L 361 880 L 361 877 L 361 873 L 360 870 L 360 867 L 360 864 L 360 861 L 360 857 L 360 854 L 360 851 L 360 848 L 360 844 L 360 841 L 360 838 L 361 834 L 361 831 L 361 828 L 361 824 L 361 821 L 362 818 L 362 814 L 362 811 L 363 808 L 363 804 L 363 801 L 364 798 L 364 794 L 365 791 L 365 787 L 366 784 L 366 781 L 367 777 L 367 774 L 368 771 L 369 767 L 369 764 L 370 760 L 371 757 L 372 754 L 372 750 L 373 747 L 374 744 L 375 740 L 376 737 L 376 733 L 377 730 L 378 727 L 379 723 L 380 720 L 381 717 L 382 713 L 383 710 L 384 707 L 385 703 L 387 700 L 388 697 L 389 693 L 390 690 L 391 687 L 393 684 L 394 680 L 395 677 L 396 674 L 398 671 L 399 667 L 400 664 L 402 661 L 403 658 L 405 655 L 406 651 L 408 648 L 409 645 L 411 642 L 412 639 L 414 636 L 415 633 L 417 630 L 419 627 L 420 624 L 422 621 L 424 618 L 426 615 L 427 612 L 429 609 L 431 606 L 433 603 L 435 600 L 437 597 L 438 594 L 440 591 L 442 588 L 444 586 L 446 583 L 448 580 L 450 577 L 452 575 L 454 572 L 457 569 L 459 566 L 461 564 L 463 561 L 465 558 L 467 556 L 470 553 L 472 551 L 474 548 L 476 546 L 479 543 L 481 540 L 483 538 L 486 536 L 488 533 L 490 531 L 493 528 L 495 526 L 498 523 L 500 521 L 503 519 L 505 516 L 508 514 L 510 512 L 513 509 L 515 507 L 518 505 L 521 503 L 523 500 L 526 498 L 528 496 L 531 494 L 534 492 L 537 490 L 539 488 L 542 485 L 545 483 L 547 481 L 550 479 L 553 477 L 556 475 L 559 473 L 562 471 L 564 469 L 567 467 L 570 465 L 573 464 L 576 462 L 579 460 L 582 458 L 585 456 L 588 454 L 591 453 L 594 451 L 597 449 L 600 447 L 603 446 L 606 444 L 609 442 L 612 440 L 615 439 L 618 437 L 621 436 L 624 434 L 627 432 L 631 431 L 634 429 L 637 428 L 640 426 L 643 425 L 646 423 L 650 422 L 653 420 L 656 419 L 659 417 L 663 416 L 666 415 L 669 413 L 672 412 L 676 411 L 679 409 L 682 408 L 686 407 L 689 406 L 692 404 L 696 403 L 699 402 L 702 401 L 706 400 L 709 398 L 712 397 L 716 396 L 719 395 L 723 394 L 726 393 L 729 392 L 733 391 L 736 390 L 740 389 L 743 388 L 747 387 L 750 386 L 754 385 L 757 384 L 760 383 L 764 382 L 767 381 L 771 381 L 774 380 L 778 379 L 781 378 L 785 377 L 788 377 L 792 376 L 795 375 L 799 374 L 803 374 L 806 373 L 810 372 L 813 372 L 817 371 L 820 371 L 824 370 L 827 369 L 831 369 L 834 368 L 838 368 L 842 367 L 845 367 L 849 366 L 852 366 L 856 365 L 859 365 L 863 365 L 867 364 L 870 364 L 874 364 L 877 363 L 881 363 L 885 363 L 888 362 L 892 362 L 895 362 L 899 362 L 902 361 L 906 361 L 910 361 L 913 361 L 917 361 L 920 361 L 924 360 L 928 360 L 931 360 L 935 360 L 938 360 L 942 360 L 945 360 L 949 360 L 953 360 L 956 360 L 960 360 L 963 360 L 967 360 L 970 361 L 974 361 L 977 361 L 981 361 L 985 361 L 988 361 L 992 362 L 995 362 L 999 362 L 1002 362 L 1006 363 L 1009 363 L 1013 363 L 1016 363 L 1020 364 L 1023 364 L 1027 365 L 1030 365 L 1034 365 L 1037 366 L 1041 366 L 1044 367 L 1048 367 L 1051 368 L 1055 368 L 1058 369 L 1061 369 L 1065 370 L 1068 370 L 1072 371 L 1075 372 L 1078 372 L 1082 373 L 1085 374 L 1089 374 L 1092 375 L 1095 376 L 1099 376 L 1102 377 L 1105 378 L 1109 379 L 1112 379 L 1115 380 L 1119 381 L 1122 382 L 1125 383 L 1128 384 L 1132 384 L 1135 385 L 1138 386 L 1141 387 L 1145 388 L 1148 389 L 1151 390 L 1154 391 L 1157 392 L 1161 393 L 1164 394 L 1167 395 L 1170 396 L 1173 398 L 1176 399 L 1179 400 L 1183 401 L 1186 402 L 1189 403 L 1192 405 L 1195 406 L 1198 407 L 1201 408 L 1204 410 L 1207 411 L 1210 412 L 1213 413 L 1216 415 L 1219 416 L 1222 417 L 1224 419 L 1227 420 L 1230 422 L 1233 423 L 1236 425 L 1239 426 L 1242 428 L 1244 429 L 1247 431 L 1250 432 L 1253 434 L 1255 435 L 1258 437 L 1261 438 L 1264 440 L 1266 442 L 1269 443 L 1272 445 L 1274 447 L 1277 448 L 1279 450 L 1282 452 L 1285 453 L 1287 455 L 1290 457 L 1292 459 L 1295 461 L 1297 462 L 1300 464 L 1302 466 L 1304 468 L 1307 470 L 1309 472 L 1312 474 L 1314 476 L 1316 478 L 1319 480 L 1321 482 L 1323 484 L 1325 486 L 1328 488 L 1330 490 L 1332 492 L 1334 494 L 1336 496 L 1339 498 L 1341 500 L 1343 502 L 1345 504 L 1347 507 L 1349 509 L 1351 511 L 1353 513 L 1355 516 L 1357 518 L 1359 520 L 1361 522 L 1363 525 L 1365 527 L 1367 529 L 1368 532 L 1370 534 L 1372 536 L 1374 539 L 1376 541 L 1378 543 L 1379 546 L 1381 548 L 1383 551 L 1384 553 L 1386 556 L 1388 558 L 1390 561 L 1391 563 L 1393 566 L 1394 568 L 1396 571 L 1398 573 L 1399 576 L 1401 579 L 1402 581 L 1404 584 L 1405 586 L 1407 589 L 1408 592 L 1410 594 L 1411 597 L 1413 600 L 1414 603 L 1415 605 L 1417 608 L 1418 611 L 1419 613 L 1421 616 L 1422 619 L 1423 622 L 1425 625 L 1426 627 L 1427 630 L 1428 633 L 1430 636 L 1431 639 L 1432 642 L 1433 645 L 1434 647 L 1436 650 L 1437 653 L 1438 656 L 1439 659 L 1440 662 L 1441 665 L 1442 668 L 1443 671 L 1444 674 L 1445 677 L 1447 680 L 1448 683 L 1449 686 L 1450 689 L 1450 692 L 1451 695 L 1452 698 L 1453 701 L 1454 704 L 1455 708 L 1456 711 L 1457 714 L 1458 717 L 1459 720 L 1460 723 L 1460 726 L 1461 729 L 1462 733 L 1463 736 L 1464 739 L 1464 742 L 1465 745 L 1466 749 L 1467 752 L 1467 755 L 1468 758 L 1469 762 L 1470 765 L 1470 768 L 1471 771 L 1472 775 L 1472 778 L 1473 781 L 1473 784 L 1474 788 L 1475 791 L 1475 794 L 1476 798 L 1477 801 L 1477 804 L 1478 808 L 1478 811 L 1479 814 L 1479 818 L 1480 821 L 1480 825 L 1481 828 L 1481 831 L 1482 835 L 1482 838 L 1483 842 L 1483 845 L 1484 848 L 1484 852 L 1485 855 L 1485 859 L 1485 862 L 1486 866 L 1486 869 L 1487 873 L 1487 876 L 1487 880 L 1488 883 L 1488 887 L 1488 890 L 1489 894 L 1489 897 L 1489 901 L 1490 904 L 1490 908 L 1490 911 L 1491 915 L 1491 918 L 1491 922 L 1491 925 L 1492 929 L 1492 932 L 1492 936 L 1492 939 L 1492 943 L 1493 946 L 1493 950 L 1493 953 L 1493 957 L 1493 960 L 1493 964 L 1493 967 L 1493 971 L 1493 974 L 1493 978 L 1494 981 L 1494 984 L 1494 988 L 1494 991 L 1494 995 L 1493 998 L 1493 1001 L 1493 1005 L 1493 1008 L 1493 1012 L 1493 1015 L 1493 1018 L 1493 1022 L 1493 1025 L 1492 1028 L 1492 1031 L 1492 1035 L 1492 1038 L 1491 1041 L 1491 1044 L 1491 1048 L 1490 1051 L 1490 1054 L 1490 1057 L 1489 1060 L 1489 1063 L 1489 1066 L 1488 1069 L 1488 1072 L 1487 1075 L 1487 1078 L 1486 1081 L 1486 1084 L 1485 1087 L 1484 1090 L 1484 1093 L 1483 1096 L 1482 1099 L 1482 1102 L 1481 1104 L 1480 1107 L 1479 1110 L 1479 1113 L 1478 1115 L 1477 1118 L 1476 1121 L 1475 1123 L 1474 1126 L 1473 1128 L 1472 1131 L 1471 1133 L 1470 1136 L 1469 1138 L 1468 1140 L 1467 1143 L 1466 1145 L 1465 1147 L 1464 1149 L 1462 1152 L 1461 1154 L 1460 1156 L 1458 1158 L 1457 1160 L 1456 1162 L 1454 1164 L 1453 1166 L 1451 1168 L 1450 1170 L 1448 1172 L 1447 1173 L 1445 1175 L 1444 1177 L 1442 1179 L 1440 1180 L 1439 1182 L 1437 1183 L 1435 1185 L 1434 1187 L 1432 1188 L 1430 1189 L 1428 1191 L 1426 1192 L 1424 1194 L 1422 1195 L 1420 1196 L 1418 1198 L 1416 1199 L 1414 1200 L 1412 1201 L 1410 1202 L 1408 1203 L 1406 1204 L 1404 1205 L 1402 1206 L 1399 1207 L 1397 1208 L 1395 1209 L 1393 1210 L 1390 1211 L 1388 1212 L 1386 1213 L 1383 1214 L 1381 1214 L 1379 1215 L 1376 1216 L 1374 1216 L 1371 1217 L 1369 1218 L 1366 1218 L 1364 1219 L 1361 1219 L 1358 1220 L 1356 1220 L 1353 1221 L 1351 1221 L 1348 1222 L 1345 1222 L 1342 1223 L 1340 1223 L 1337 1223 L 1334 1223 L 1331 1224 L 1329 1224 L 1326 1224 L 1323 1224 L 1320 1225 L 1317 1225 L 1314 1225 L 1311 1225 L 1308 1225 L 1305 1225 L 1303 1225 L 1300 1225 L 1296 1225 L 1293 1225 L 1290 1225 L 1287 1225 L 1284 1225 L 1281 1225 L 1278 1225 L 1275 1225 L 1272 1225 L 1269 1225 L 1265 1225 L 1262 1224 L 1259 1224 L 1256 1224 L 1253 1224 L 1249 1224 L 1246 1223 L 1243 1223 L 1240 1223 L 1236 1222 L 1233 1222 L 1230 1222 L 1226 1221 L 1223 1221 L 1219 1221 L 1216 1220 L 1213 1220 L 1209 1219 L 1206 1219 L 1202 1219 L 1199 1218 L 1195 1218 L 1192 1217 L 1189 1217 L 1185 1216 L 1181 1216 L 1178 1215 L 1174 1215 L 1171 1214 L 1167 1213 L 1164 1213 L 1160 1212 L 1157 1212 L 1153 1211 L 1149 1211 L 1146 1210 L 1142 1209 L 1139 1209 L 1135 1208 L 1131 1207 L 1128 1207 L 1124 1206 L 1120 1205 L 1117 1205 L 1113 1204 L 1109 1203 L 1105 1203 L 1102 1202 L 1098 1201 L 1094 1200 L 1091 1200 L 1087 1199 L 1083 1198 L 1079 1198 L 1076 1197 L 1072 1196 L 1068 1195 L 1064 1195 L 1060 1194 L 1057 1193 L 1053 1192 L 1049 1192 L 1045 1191 L 1041 1190 L 1038 1189 L 1034 1188 L 1030 1188 L 1026 1187 L 1022 1186 L 1018 1185 L 1015 1185 L 1011 1184 L 1007 1183 L 1003 1182 L 999 1182 L 995 1181 L 992 1180 L 988 1179 L 984 1178 L 980 1178 L 976 1177 L 972 1176 L 968 1175 L 965 1175 L 961 1174 L 957 1173 L 953 1172 L 949 1172 L 945 1171 L 941 1170 L 937 1169 L 934 1169 L 930 1168 L 926 1167 L 922 1167 L 918 1166 L 914 1165 L 910 1165 L 906 1164 L 903 1163 L 899 1163 L 895 1162 L 891 1161 L 887 1161 L 883 1160 L 880 1159 L 876 1159 L 872 1158 L 868 1158 L 864 1157 L 860 1156 L 856 1156 L 853 1155 L 849 1155 L 845 1154 L 841 1154 L 837 1153 L 834 1152 L 830 1152 L 826 1151 L 822 1151 L 818 1150 L 815 1150 L 811 1149 L 807 1149 L 803 1148 L 800 1148 L 796 1147 L 792 1147 L 788 1146 L 785 1146 L 781 1145 L 777 1145 L 773 1144 L 770 1144 L 766 1144 L 762 1143 L 759 1143 L 755 1142 L 751 1142 L 748 1141 L 744 1141 L 740 1140 L 737 1140 L 733 1139 L 729 1139 L 726 1138 L 722 1138 L 719 1137 L 715 1137 L 712 1137 L 708 1136 L 704 1136 L 701 1135 L 697 1135 L 694 1134 L 690 1134 L 687 1133 L 683 1133 L 680 1132 L 676 1132 L 673 1131 L 669 1131 L 666 1130 L 663 1130 L 659 1129 L 656 1129 L 652 1128 L 649 1128 L 646 1127 L 642 1127 L 639 1126 L 636 1125 L 632 1125 L 629 1124 L 626 1124 L 622 1123 L 619 1123 L 616 1122 L 613 1121 L 609 1121 L 606 1120 L 603 1119 L 600 1119 L 597 1118 L 593 1118 L 590 1117 L 587 1116 L 584 1115 L 581 1115 L 578 1114 L 575 1113 L 572 1113 L 569 1112 L 566 1111 L 563 1110 L 560 1110 L 557 1109 L 554 1108 L 551 1107 L 548 1106 L 545 1105 L 542 1105 L 539 1104 L 537 1103 L 534 1102 L 531 1101 L 528 1100 L 525 1099 L 523 1098 L 520 1097 L 517 1096 L 514 1095 L 512 1094 L 509 1093 L 506 1092 L 504 1091 L 501 1090 L 499 1089 L 496 1088 L 494 1087 L 491 1086 L 488 1084 L 486 1083 L 484 1082 L 481 1081 L 479 1080 L 476 1078 L 474 1077 L 472 1076 L 469 1074 L 467 1073 L 465 1072 L 462 1070 L 460 1069 L 458 1067 L 456 1066 L 453 1065 L 451 1063 L 449 1062 L 447 1060 L 445 1059 L 443 1057 L 441 1055 L 439 1054 L 437 1052 L 435 1050 L 433 1049 L 431 1047 L 429 1045 L 427 1044 L 425 1042 L 423 1040 L 422 1038 L 420 1036 L 418 1034 L 416 1032 L 415 1031 L 413 1029 L 411 1027 L 410 1025 L 408 1023 L 406 1020 L 405 1018 L 403 1016 L 402 1014 L 400 1012 L 399 1010 L 397 1007 Z" fill="rgb(0,0,0)" stroke="rgb(255,255,255)" stroke-linecap="round" stroke-linejoin="round" stroke-width="2" /></svg>